<svg width="17" height="16" xmlns="http://www.w3.org/2000/svg">

 <g>
  <title>background</title>
  <rect fill="none" id="canvas_background" height="602" width="802" y="-1" x="-1"/>
 </g>
 <g>
  <title>Layer 1</title>
  <path id="svg_1" stroke-width="0.3" stroke="black" fill="#D0EEFF" d="m15.0673,1.4951c-1.7933,-1.79337 -4.7118,-1.79361 -6.50537,0l-2.1,2.09999l0,0.00001l-0.00675,0.00685l-0.00412,0.0045l-0.00009,-0.00009c-1.77243,1.7823 -1.79715,4.68412 0.01101,6.49414c0.19135,0.1914 0.39915,0.3655 0.62101,0.5204m7.98431,-9.12579c1.7936,1.79329 1.7936,4.71205 0,6.50531l0,0.00001l-1.1596,1.15957c-0.2165,0.21651 -0.5859,0.07046 -0.597,-0.23086c-0.0207,-0.568 -0.1226,-1.1389 -0.3107,-1.69046l0,-0.00001c-0.0441,-0.12924 -0.0121,-0.2702 0.0823,-0.36464l0.409,-0.40896c0.9322,-0.93222 0.9636,-2.45245 0.0371,-3.39734m-5.33614,6.85805l-0.65793,0.65792c-0.12001,0.1201 -0.30962,0.1361 -0.45131,0.0372m1.10925,-0.69512c0.22967,-0.22967 0.3326,-0.52865 0.32173,-0.81962c-0.0021,-0.05468 -0.01694,-0.10812 -0.04336,-0.15604c-0.02641,-0.04793 -0.06366,-0.08903 -0.10876,-0.12001l-0.00015,-0.00009c-0.09653,-0.06647 -0.22049,-0.16184 -0.34405,-0.28517l-0.0001,-0.0001c-0.9357,-0.9357 -0.93971,-2.45461 0,-3.39432l0.00001,0l2.10001,-2.09968c0,-0.00001 0,-0.00001 0,-0.00001c0.9414,-0.94139 2.4766,-0.93573 3.4108,0.01699m-2.8544,9.32587l-0.0001,-0.0001l-0.0041,0.0045l-0.0067,0.0069l-2.10002,2.1c-1.79361,1.7936 -4.71204,1.7934 -6.50537,0l-0.00001,0c-1.7936,-1.7933 -1.7936,-4.71206 0,-6.50536l0.00001,0l1.15956,-1.15957c0.21653,-0.21652 0.58597,-0.07044 0.59697,0.23085l0,0.00001c0.02077,0.56799 0.12263,1.1389 0.31074,1.69046l0.00001,0.00001c0.04408,0.12924 0.01212,0.2702 -0.08232,0.36463l-0.40897,0.40897c-0.93221,0.9322 -0.96366,2.4524 -0.03713,3.3973c0.93422,0.9528 2.46943,0.9584 3.41082,0.017c0,0 0,0 0.00001,0l2.09999,-2.0997l0.00001,0c0.9397,-0.93967 0.9357,-2.45858 0,-3.39428l-0.0001,-0.0001c-0.12356,-0.12333 -0.24752,-0.2187 -0.34406,-0.28517l-0.00014,-0.00009c-0.04511,-0.03099 -0.08235,-0.07208 -0.10877,-0.12001c-0.02639,-0.04788 -0.04123,-0.10127 -0.04335,-0.1559c-0.01091,-0.29102 0.09202,-0.59005 0.32173,-0.81976l-0.10607,-0.10607l0.10607,0.10607l0.65794,-0.65797c0.12004,-0.12004 0.30964,-0.13604 0.45133,-0.03715c0.22192,0.15493 0.42972,0.32907 0.62102,0.52041c1.8082,1.81004 1.7835,4.71182 0.011,6.49412z"/>
 </g>
</svg>